<svg id="Logo" xmlns="http://www.w3.org/2000/svg" width="75" height="16.602" viewBox="0 0 75 16.602">
  <g id="Group_1" data-name="Group 1">
    <path id="Path" d="M5.346,12.6a4.006,4.006,0,0,0,2.79-1.026A3.385,3.385,0,0,0,9.27,8.946a3.114,3.114,0,0,0-1.656-2.88A3.073,3.073,0,0,0,8.8,3.546,3.279,3.279,0,0,0,7.7,1,3.921,3.921,0,0,0,4.968,0H0V12.6Z" transform="translate(0 3.252)" fill="#fff"/>
    <path id="Path-2" data-name="Path" d="M2.484,2.772H0V0H2.484a1.284,1.284,0,0,1,.972.4,1.377,1.377,0,0,1,.378.99,1.36,1.36,0,0,1-.387.99,1.292,1.292,0,0,1-.963.4Z" transform="translate(2.484 5.574)" fill="#fff"/>
    <path id="Path-3" data-name="Path" d="M2.862,2.97H0V0H2.862A1.4,1.4,0,0,1,3.906.423,1.446,1.446,0,0,1,4.32,1.476a1.468,1.468,0,0,1-.414,1.071,1.4,1.4,0,0,1-1.044.423Z" transform="translate(2.484 10.56)" fill="#fff"/>
    <path id="Path-4" data-name="Path" d="M6.534,13.1a6.351,6.351,0,0,0,4.644-1.89,6.342,6.342,0,0,0,1.908-4.662A6.312,6.312,0,0,0,11.178,1.9,6.336,6.336,0,0,0,6.534,0,6.306,6.306,0,0,0,1.9,1.9,6.327,6.327,0,0,0,0,6.552,6.327,6.327,0,0,0,1.9,11.2,6.306,6.306,0,0,0,6.534,13.1Z" transform="translate(11.814 3)" fill="#fff"/>
    <path id="Path-5" data-name="Path" d="M4.068,8.262A3.968,3.968,0,0,1,1.17,7.11,4.024,4.024,0,0,1,0,4.14,4.024,4.024,0,0,1,1.17,1.17,3.936,3.936,0,0,1,4.068,0a3.936,3.936,0,0,1,2.9,1.17,4.024,4.024,0,0,1,1.17,2.97A3.994,3.994,0,0,1,6.966,7.1,3.952,3.952,0,0,1,4.068,8.262Z" transform="translate(14.28 5.412)" fill="#fff"/>
    <path id="Path-6" data-name="Path" d="M6.534,13.1a6.351,6.351,0,0,0,4.644-1.89,6.342,6.342,0,0,0,1.908-4.662A6.312,6.312,0,0,0,11.178,1.9,6.336,6.336,0,0,0,6.534,0,6.306,6.306,0,0,0,1.9,1.9,6.327,6.327,0,0,0,0,6.552,6.327,6.327,0,0,0,1.9,11.2,6.306,6.306,0,0,0,6.534,13.1Z" transform="translate(27.57)" fill="#fff"/>
    <path id="Path-7" data-name="Path" d="M4.068,8.262A3.968,3.968,0,0,1,1.17,7.11,4.024,4.024,0,0,1,0,4.14,4.024,4.024,0,0,1,1.17,1.17,3.936,3.936,0,0,1,4.068,0a3.936,3.936,0,0,1,2.9,1.17,4.024,4.024,0,0,1,1.17,2.97A3.994,3.994,0,0,1,6.966,7.1,3.952,3.952,0,0,1,4.068,8.262Z" transform="translate(30.036 2.412)" fill="#fff"/>
    <path id="Path-8" data-name="Path" d="M2.484,12.6V6.7l4.5,5.9H9.846L5,6.12,9.666,0H6.8L2.484,5.562V0H0V12.6Z" transform="translate(43.902 3.252)" fill="#fff"/>
    <path id="Path-9" data-name="Path" d="M7.29,12.6V10.224H2.484V0H0V12.6Z" transform="translate(56.472 3.252)" fill="#fff"/>
    <path id="Path-10" data-name="Path" d="M6.768,12.6V7.686L11.088,0H8.28L5.544,5.256,2.808,0H0L4.3,7.686V12.6Z" transform="translate(63.912 3.252)" fill="#fff"/>
  </g>
  <path id="Path_72" data-name="Path 72" d="M0,.5H9" transform="translate(29.83 15.352)" fill="none" stroke="#fff" stroke-linecap="round" stroke-miterlimit="10" stroke-width="1.5"/>
</svg>
